<svg width="43" height="16" viewBox="0 0 43 16" fill="none" xmlns="http://www.w3.org/2000/svg">
<path d="M0.820293 8.39129C1.08208 8.62927 1.39043 8.81015 1.72577 8.92245C2.12221 9.05353 2.53774 9.11741 2.95519 9.11143C3.38775 9.1185 3.81855 9.05466 4.23052 8.92245C4.56824 8.80967 4.88278 8.63664 5.15896 8.41172C5.39993 8.21857 5.59401 7.9732 5.72655 7.69408C5.85909 7.41497 5.92666 7.10938 5.92416 6.80034C5.94159 6.39676 5.8443 5.99651 5.64359 5.64608C5.46066 5.35535 5.21593 5.10859 4.92685 4.92338C4.6342 4.73563 4.31646 4.59033 3.98311 4.49181L3.01131 4.19813C2.74797 4.12016 2.49194 4.01933 2.24611 3.8968C2.13915 3.84831 2.04837 3.77005 1.98461 3.67134C1.92084 3.57263 1.88677 3.45765 1.88647 3.3401C1.88863 3.21974 1.91717 3.10132 1.97006 2.99321C2.02295 2.8851 2.0989 2.78994 2.19255 2.71444C2.41058 2.5276 2.69145 2.43082 2.97815 2.44375C3.1326 2.43548 3.28714 2.45835 3.4326 2.51099C3.57806 2.56363 3.71149 2.64497 3.82497 2.75019C4.01305 2.94757 4.12122 3.20785 4.1285 3.48055L5.73286 3.36563C5.72407 3.05934 5.65923 2.75726 5.54156 2.47439C5.41476 2.17574 5.22812 1.90631 4.99317 1.68275C4.74395 1.45189 4.45071 1.27382 4.13104 1.15924C3.76094 1.02844 3.37059 0.964456 2.97815 0.970274C2.57151 0.963905 2.16682 1.02783 1.78189 1.15924C1.45985 1.27052 1.16015 1.43827 0.896809 1.65466C0.665643 1.84916 0.47793 2.09017 0.345866 2.36204C0.218983 2.62656 0.153581 2.91641 0.154567 3.20986C0.137373 3.60451 0.234832 3.99569 0.435141 4.33603C0.62068 4.61981 0.865144 4.86022 1.15188 5.04085C1.44567 5.22459 1.7632 5.36721 2.09562 5.46477C2.44251 5.56947 2.769 5.67161 3.06998 5.7661C3.33497 5.84794 3.59128 5.95572 3.83517 6.08787C3.9431 6.1418 4.03376 6.22494 4.09688 6.32786C4.16 6.43077 4.19304 6.54934 4.19226 6.67011C4.19143 6.79907 4.16273 6.92633 4.10813 7.04314C4.05354 7.15996 3.97434 7.26356 3.87598 7.34683C3.62086 7.55079 3.29881 7.65189 2.97305 7.63029C2.17469 7.63029 1.73343 7.24979 1.69772 6.5271L0.0933533 6.64201C0.101104 6.96164 0.165891 7.27731 0.284653 7.57411C0.402611 7.8818 0.585289 8.1605 0.820293 8.39129V8.39129Z" fill="#1A1A1A"/>
<path d="M8.14066 8.4603C8.34418 8.67202 8.5914 8.83673 8.86505 8.94295C9.16353 9.05823 9.48124 9.11543 9.80114 9.11149C10.0306 9.11441 10.2592 9.08343 10.4796 9.01956C10.6639 8.96365 10.8425 8.89011 11.0127 8.79994C11.1828 8.71089 11.3435 8.60479 11.4922 8.48328L11.6045 8.39135L11.8952 9.04509H13.015V3.26355H11.4846V6.35096C11.5043 6.71236 11.3837 7.06741 11.1479 7.34179C10.9103 7.57041 10.5936 7.6981 10.2641 7.6981C9.93457 7.6981 9.61784 7.57041 9.38028 7.34179C9.14356 7.06795 9.02278 6.71251 9.04359 6.35096V3.26355H7.5132V6.67783C7.50735 7.0257 7.56438 7.37176 7.68154 7.6993C7.78168 7.98141 7.93785 8.24028 8.14066 8.4603V8.4603Z" fill="#1A1A1A"/>
<path d="M17.624 4.60673C17.7881 4.60128 17.9516 4.63053 18.1036 4.69257C18.2557 4.75462 18.393 4.84806 18.5065 4.9668C18.743 5.24078 18.8638 5.59612 18.8432 5.95763V9.04504H20.3736V5.63332C20.3794 5.28546 20.3223 4.93942 20.2053 4.61184C20.102 4.32685 19.9414 4.06611 19.7334 3.84574C19.5294 3.63458 19.2823 3.46996 19.009 3.36309C18.7106 3.24763 18.3928 3.19042 18.0729 3.19454C17.8413 3.19206 17.6107 3.22567 17.3894 3.29414C17.2022 3.3525 17.0197 3.42507 16.8435 3.51121C16.6791 3.59618 16.5251 3.69987 16.3844 3.8202L16.2722 3.91979L15.9788 3.26094H14.8591V9.04248H16.3895V5.96529C16.369 5.60378 16.4897 5.24844 16.7262 4.97446C16.8408 4.85236 16.9803 4.75633 17.1352 4.69289C17.2901 4.62944 17.4568 4.60006 17.624 4.60673V4.60673Z" fill="#1A1A1A"/>
<path d="M24.9928 4.73696C25.0859 4.73675 25.1788 4.74357 25.2709 4.75738C25.355 4.77271 25.429 4.78803 25.4928 4.80591L25.5336 4.82123V3.24305H25.4826L25.3244 3.21751C25.2573 3.21338 25.19 3.21338 25.1229 3.21751C24.9302 3.21498 24.7388 3.24967 24.5592 3.31966C24.408 3.38044 24.2656 3.46116 24.1358 3.5597C24.0008 3.65369 23.8797 3.76632 23.7762 3.89424L23.6563 4.04491L23.3528 3.2788H22.2356V9.06035H23.766V6.09041C23.7446 5.72878 23.8655 5.37314 24.1027 5.09958C24.2165 4.97885 24.3548 4.88401 24.5084 4.82144C24.662 4.75888 24.8272 4.73008 24.9928 4.73696Z" fill="#1A1A1A"/>
<path d="M28.6633 3.26355H27.1252V9.04765H28.6633V3.26355Z" fill="#1A1A1A"/>
<path d="M28.5332 0.911531C28.4118 0.793391 28.2586 0.713382 28.0924 0.681357C27.9262 0.649333 27.7543 0.666699 27.5978 0.731312C27.4414 0.795925 27.3072 0.904961 27.2119 1.04498C27.1166 1.185 27.0643 1.34989 27.0614 1.51931C27.0598 1.63237 27.0816 1.74454 27.1255 1.84871C27.1694 1.95289 27.2345 2.04681 27.3165 2.12453C27.394 2.20766 27.4878 2.27393 27.592 2.31925C27.6963 2.36456 27.8087 2.38794 27.9223 2.38794C28.0359 2.38794 28.1483 2.36456 28.2525 2.31925C28.3567 2.27393 28.4505 2.20766 28.5281 2.12453C28.6101 2.04681 28.6751 1.95289 28.719 1.84871C28.7629 1.74454 28.7848 1.63237 28.7831 1.51931C28.7853 1.40626 28.7642 1.29397 28.7212 1.18941C28.6782 1.08486 28.6142 0.990274 28.5332 0.911531V0.911531Z" fill="#1A1A1A"/>
<path d="M30.9894 8.66971C31.3797 9.00679 31.9765 9.18044 32.7622 9.18044C33.093 9.1847 33.4223 9.13378 33.7365 9.02978C34.0018 8.94188 34.2484 8.80503 34.4634 8.6263C34.6504 8.46886 34.8025 8.27401 34.9098 8.05427C35.0103 7.85009 35.0626 7.62557 35.0629 7.39797C35.0728 7.1079 35.0003 6.82098 34.8537 6.57058C34.7161 6.35573 34.5333 6.17358 34.3181 6.03686C34.0955 5.89643 33.8565 5.78406 33.6064 5.70232C33.3361 5.61295 33.0963 5.53889 32.8744 5.47504C32.6525 5.4112 32.451 5.34226 32.2954 5.28097C32.0403 5.18393 31.997 5.0256 31.997 4.91579C31.996 4.83865 32.0117 4.76221 32.043 4.6917C32.0742 4.62118 32.1203 4.55826 32.1781 4.5072C32.3236 4.3948 32.5047 4.3386 32.6882 4.34887C32.8918 4.34019 33.0912 4.40856 33.2468 4.5404C33.3496 4.62889 33.4308 4.73984 33.484 4.86472L34.9659 4.7498C34.8615 4.31169 34.6181 3.91925 34.2721 3.63128C33.887 3.30186 33.3105 3.13587 32.5581 3.13587C32.2453 3.13154 31.9341 3.17988 31.6373 3.27888C31.3889 3.36639 31.1582 3.49786 30.9563 3.66704C30.7789 3.81629 30.6354 4.00173 30.5354 4.21097C30.4297 4.44523 30.3804 4.70105 30.3915 4.95786C30.4026 5.21467 30.4737 5.4653 30.5992 5.68956C30.7377 5.90369 30.9203 6.08567 31.1348 6.22328C31.3574 6.36371 31.5964 6.47607 31.8465 6.55781C32.1015 6.64208 32.3566 6.71869 32.5785 6.78509C32.7761 6.84 32.9703 6.90651 33.1601 6.98427C33.4151 7.08897 33.4559 7.23965 33.4559 7.34179C33.4536 7.42839 33.4317 7.51334 33.392 7.59029C33.3522 7.66724 33.2956 7.73419 33.2264 7.78613C33.057 7.92175 32.8435 7.98996 32.627 7.97766C32.4286 7.99132 32.2319 7.9338 32.072 7.81541C31.9122 7.69701 31.7996 7.52549 31.7546 7.33158L30.2804 7.44394C30.3734 7.92035 30.623 8.35187 30.9894 8.66971V8.66971Z" fill="#1A1A1A"/>
<path d="M42.3934 6.5323L42.4189 6.34333C42.4271 6.28066 42.4313 6.21755 42.4317 6.15435C42.4368 5.7289 42.3624 5.30624 42.2123 4.90815C42.0752 4.55324 41.8699 4.22874 41.6078 3.95307C41.3539 3.69157 41.0492 3.48475 40.7126 3.34529C40.3619 3.2026 39.9866 3.13057 39.6081 3.13334C39.2135 3.12987 38.8226 3.20903 38.4603 3.36573C38.1097 3.5165 37.7917 3.73421 37.5242 4.0067C37.2535 4.28243 37.0379 4.60749 36.8891 4.96433C36.5762 5.72675 36.5762 6.58196 36.8891 7.34437C37.0363 7.70022 37.2492 8.02511 37.5166 8.302C37.7784 8.57371 38.0902 8.79223 38.4348 8.94554C38.7842 9.1004 39.1623 9.17959 39.5444 9.17792C39.8904 9.18364 40.235 9.13275 40.5646 9.02725C40.846 8.93426 41.1104 8.79629 41.3477 8.61867C41.5655 8.45612 41.7559 8.25951 41.9114 8.03642C42.0279 7.86813 42.1254 7.68742 42.2021 7.49759L40.5825 7.38013C40.5267 7.44911 40.4594 7.50787 40.3835 7.55378C40.289 7.61955 40.1849 7.67037 40.0749 7.70444C39.9263 7.75047 39.7713 7.77204 39.6158 7.76828C39.2898 7.7789 38.9718 7.6658 38.7256 7.45163C38.5148 7.27229 38.3577 7.03808 38.2716 6.7749L38.2257 6.62934H42.3883C42.3858 6.5987 42.3883 6.5655 42.3934 6.5323ZM38.2231 5.74321L38.2614 5.60275C38.3401 5.31817 38.4985 5.0621 38.7179 4.86474C38.968 4.65437 39.2841 4.53903 39.6107 4.53903C39.9373 4.53903 40.2534 4.65437 40.5034 4.86474C40.7225 5.06187 40.8802 5.31813 40.9574 5.60275L40.9957 5.74321H38.2231Z" fill="#1A1A1A"/>
<path d="M0.634058 15.1587H0.0678101V12.1734H0.634058V15.1587Z" fill="#999999"/>
<path d="M2.89905 12.1734H5.20993V12.7173H4.33762V15.1587H3.77137V12.7275H2.89905V12.1734Z" fill="#999999"/>
<path d="M11.3443 13.6622C11.3428 13.7947 11.3662 13.9264 11.4132 14.0503C11.4564 14.1634 11.5204 14.2673 11.6019 14.3568C11.6786 14.4426 11.7724 14.5114 11.8774 14.5585C11.984 14.6066 12.0997 14.631 12.2166 14.63C12.3096 14.6314 12.4021 14.6159 12.4895 14.5841C12.5684 14.5568 12.6425 14.5172 12.7089 14.4666C12.7705 14.4197 12.8247 14.3637 12.8696 14.3006C12.9105 14.2407 12.9447 14.1765 12.9716 14.1091H13.5608C13.5253 14.2525 13.4677 14.3895 13.3899 14.5151C13.3121 14.6434 13.2139 14.7582 13.0991 14.8547C12.9805 14.952 12.847 15.0296 12.7038 15.0846C12.5485 15.145 12.3832 15.1754 12.2166 15.174C12.0251 15.174 11.8357 15.134 11.6606 15.0565C11.4884 14.981 11.3331 14.8716 11.204 14.7347C11.0719 14.596 10.9664 14.4341 10.8928 14.2572C10.7397 13.8762 10.7397 13.4507 10.8928 13.0697C10.9657 12.8909 11.0712 12.7272 11.204 12.5871C11.3331 12.4502 11.4884 12.3408 11.6606 12.2653C11.8359 12.1887 12.0253 12.1495 12.2166 12.1504C12.3788 12.1489 12.5399 12.1783 12.691 12.2372C12.8322 12.2927 12.9632 12.3713 13.0787 12.4696C13.1932 12.5648 13.2907 12.6788 13.367 12.8067C13.4447 12.9323 13.5024 13.0693 13.5379 13.2127H12.9461C12.927 13.1444 12.8968 13.0797 12.8568 13.0212C12.8148 12.9582 12.7632 12.9022 12.7038 12.8552C12.6389 12.8051 12.5666 12.7655 12.4895 12.7377C12.4019 12.7068 12.3095 12.6921 12.2166 12.6943C12.1007 12.6924 11.9858 12.7156 11.8797 12.7623C11.7736 12.809 11.6788 12.8782 11.6019 12.965C11.5214 13.0552 11.4575 13.1589 11.4132 13.2715C11.366 13.3962 11.3426 13.5288 11.3443 13.6622Z" fill="#999999"/>
<path d="M18.5371 13.6622C18.5388 13.8662 18.4998 14.0685 18.4224 14.2572C18.3479 14.4336 18.2425 14.5954 18.1112 14.7347C17.9812 14.8716 17.8251 14.9811 17.6521 15.0565C17.4778 15.1339 17.2892 15.1739 17.0986 15.1739C16.9079 15.1739 16.7194 15.1339 16.5451 15.0565C16.3717 14.9817 16.2155 14.8722 16.086 14.7347C15.9538 14.596 15.8483 14.4341 15.7748 14.2572C15.6217 13.8762 15.6217 13.4507 15.7748 13.0697C15.8477 12.8909 15.9532 12.7272 16.086 12.5871C16.2155 12.4496 16.3717 12.3401 16.5451 12.2653C16.7198 12.1895 16.9082 12.1505 17.0986 12.1505C17.289 12.1505 17.4773 12.1895 17.6521 12.2653C17.8251 12.3407 17.9812 12.4501 18.1112 12.5871C18.2431 12.7279 18.3485 12.8914 18.4224 13.0697C18.4995 13.2576 18.5385 13.459 18.5371 13.6622V13.6622ZM16.2262 13.6622C16.2247 13.7947 16.2481 13.9264 16.2951 14.0503C16.3394 14.1629 16.4033 14.2666 16.4839 14.3568C16.5609 14.4433 16.6558 14.5121 16.7619 14.5585C16.8674 14.6056 16.9817 14.63 17.0973 14.63C17.2129 14.63 17.3271 14.6056 17.4327 14.5585C17.5392 14.5128 17.6342 14.4438 17.7107 14.3568C17.793 14.268 17.8572 14.1638 17.8995 14.0503C17.9948 13.7995 17.9948 13.5223 17.8995 13.2715C17.8559 13.1585 17.7919 13.0547 17.7107 12.965C17.6335 12.8787 17.5387 12.8099 17.4327 12.7633C17.2735 12.6925 17.096 12.6739 16.9256 12.7101C16.7552 12.7463 16.6006 12.8356 16.4839 12.965C16.4044 13.056 16.3406 13.1595 16.2951 13.2715C16.2479 13.3962 16.2245 13.5288 16.2262 13.6622V13.6622Z" fill="#999999"/>
<path d="M23.891 12.1734V15.1587H23.3247V13.5064L22.5595 15.1587H22.182L21.4296 13.5064V15.1587H20.8633V12.1734H21.3582L22.3784 14.3696L23.3987 12.1734H23.891Z" fill="#999999"/>
<path d="M27.5002 12.1733C27.6368 12.1719 27.7723 12.1989 27.8981 12.2525C28.0176 12.3021 28.1267 12.374 28.2194 12.4644C28.3134 12.5533 28.3873 12.6613 28.4362 12.7811C28.488 12.9021 28.5147 13.0325 28.5147 13.1641C28.5147 13.2958 28.488 13.4262 28.4362 13.5472C28.3873 13.667 28.3134 13.775 28.2194 13.8639C28.1267 13.9543 28.0176 14.0262 27.8981 14.0758C27.7723 14.1294 27.6368 14.1564 27.5002 14.155H26.9569V15.1586H26.3932V12.1733H27.5002ZM27.5002 13.6136C27.5593 13.614 27.6177 13.6009 27.671 13.5753C27.7236 13.5523 27.7712 13.5193 27.8113 13.4783C27.8524 13.4366 27.8861 13.3883 27.9108 13.3352C27.936 13.2822 27.949 13.2242 27.949 13.1654C27.949 13.1067 27.936 13.0487 27.9108 12.9956C27.8861 12.9426 27.8524 12.8942 27.8113 12.8526C27.7712 12.8115 27.7236 12.7786 27.671 12.7556C27.6177 12.73 27.5593 12.7169 27.5002 12.7173H26.9569V13.6264L27.5002 13.6136Z" fill="#999999"/>
<path d="M30.969 15.1586H30.3773L31.4868 12.1836H31.997L33.1142 15.1586H32.525L32.3133 14.5458H31.1808L30.969 15.1586ZM32.1245 14.0248L31.747 12.9395L31.3695 14.0248H32.1245Z" fill="#999999"/>
<path d="M37.6671 12.1734V15.1587H37.1722L35.851 13.223V15.1587H35.2924V12.1734H35.7872L37.1085 14.1091V12.1734H37.6671Z" fill="#999999"/>
<path d="M41.8196 12.1734H42.4343L41.4446 14.0146V15.1587H40.8784V14.0248L39.8836 12.1734H40.4983L41.1589 13.4502L41.8196 12.1734Z" fill="#999999"/>
</svg>
