<svg width="108" height="27" viewBox="0 0 108 27" fill="none" xmlns="http://www.w3.org/2000/svg">
<path d="M41.5422 13.9789C41.9427 14.331 42.4144 14.5983 42.9272 14.7637C43.5299 14.9603 44.1627 15.056 44.7985 15.0467C45.4585 15.0563 46.1157 14.9607 46.7437 14.7637C47.2614 14.6001 47.743 14.3442 48.1637 14.0091C48.529 13.72 48.8228 13.3551 49.0235 12.9414C49.2377 12.4609 49.3363 11.9395 49.3121 11.4165C49.2878 10.8936 49.1412 10.3829 48.8835 9.923C48.6049 9.4944 48.2331 9.12999 47.7941 8.85526C47.3457 8.58161 46.8616 8.36717 46.3547 8.21763L44.8724 7.78374C44.4702 7.67019 44.0795 7.52116 43.7053 7.33852C43.5416 7.26765 43.4026 7.1522 43.3052 7.0062C43.2078 6.86019 43.1563 6.6899 43.1568 6.51601C43.1602 6.33913 43.2033 6.1651 43.2833 6.00609C43.3633 5.84707 43.4781 5.70691 43.6197 5.59541C43.9521 5.31903 44.3806 5.17599 44.818 5.19548C45.0542 5.18253 45.2907 5.21597 45.5133 5.29376C45.7359 5.37156 45.9401 5.49212 46.1135 5.64824C46.3988 5.94084 46.5635 6.32478 46.5764 6.7273L49.0235 6.55752C49.0085 6.10518 48.9096 5.65915 48.7317 5.24075C48.538 4.79971 48.2533 4.4017 47.8953 4.07113C47.5158 3.72835 47.0684 3.46392 46.5803 3.2939C46.0142 3.10218 45.4176 3.00894 44.818 3.01848C44.1989 3.0072 43.5826 3.1017 42.9972 3.29768C42.5057 3.46126 42.0484 3.70919 41.6473 4.02963C41.2915 4.31499 41.0036 4.67148 40.803 5.07474C40.6113 5.46484 40.5117 5.89146 40.5113 6.32359C40.4796 6.90645 40.6228 7.48572 40.9236 7.99124C41.2032 8.41197 41.5752 8.76757 42.013 9.03259C42.4635 9.30305 42.9488 9.51489 43.4563 9.66267C43.9854 9.81358 44.4834 9.9645 44.9425 10.1079C45.347 10.2279 45.738 10.3871 46.1096 10.5833C46.2736 10.6627 46.4115 10.7849 46.5077 10.9362C46.604 11.0876 46.6547 11.262 46.6543 11.4397C46.653 11.6307 46.6089 11.819 46.5249 11.9917C46.4409 12.1644 46.3191 12.3172 46.1679 12.4396C45.7796 12.7422 45.2878 12.8918 44.7907 12.8584C43.573 12.8584 42.9 12.2962 42.8455 11.2322L40.3984 11.402C40.4084 11.8732 40.5073 12.3387 40.6902 12.7754C40.8809 13.2317 41.1716 13.6424 41.5422 13.9789Z" fill="#1A1A1A"/>
<path d="M52.7116 14.0803C53.0203 14.3942 53.3961 14.6389 53.8125 14.7972C54.2697 14.9657 54.7552 15.0502 55.2442 15.0462C55.5944 15.0491 55.943 15.002 56.2791 14.9066C56.5604 14.828 56.8319 14.7192 57.0883 14.5821C57.3482 14.4527 57.5933 14.2972 57.8197 14.118L57.9948 13.9785L58.4383 14.9481H60.1462V6.40234H57.8119V10.9639C57.8445 11.4981 57.6602 12.0236 57.2984 12.4278C56.9389 12.7709 56.4547 12.9632 55.9503 12.9632C55.446 12.9632 54.9618 12.7709 54.6023 12.4278C54.2423 12.0226 54.0583 11.4979 54.0888 10.9639V6.40234H51.7545V11.4468C51.7458 11.9607 51.8327 12.472 52.0113 12.956C52.1636 13.373 52.4019 13.7555 52.7116 14.0803Z" fill="#1A1A1A"/>
<path d="M67.1783 8.38751C67.429 8.37922 67.6786 8.4227 67.9107 8.51507C68.1428 8.60743 68.3519 8.74657 68.5244 8.92328C68.8854 9.32786 69.0696 9.85301 69.0379 10.3872V14.9487H71.3722V9.90425C71.3783 9.39049 71.2914 8.87967 71.1154 8.39506C70.9573 7.97424 70.7124 7.58909 70.3956 7.26318C70.0845 6.9512 69.7076 6.70797 69.2908 6.55008C68.8355 6.37976 68.3509 6.29524 67.863 6.30106C67.5096 6.29684 67.1578 6.3465 66.8203 6.44821C66.535 6.53331 66.2567 6.63925 65.9878 6.76514C65.7463 6.89615 65.5217 7.05447 65.3186 7.23676L65.1436 7.38391L64.7001 6.40671H62.9844V14.9525H65.3186V10.3872C65.2885 9.85323 65.4726 9.32866 65.8322 8.92328C66.0049 8.74696 66.2141 8.60807 66.4461 8.51573C66.6781 8.4234 66.9276 8.3797 67.1783 8.38751Z" fill="#1A1A1A"/>
<path d="M78.4126 8.58304C78.5546 8.58097 78.6965 8.59107 78.8366 8.61322C78.9507 8.63112 79.0637 8.65505 79.1751 8.6849L79.2335 8.70754V6.37585H79.1595C79.0895 6.37585 79.0117 6.34944 78.9144 6.33812C78.8135 6.33 78.712 6.33 78.611 6.33812C78.3169 6.33222 78.0245 6.38354 77.7512 6.48904C77.5199 6.57733 77.3025 6.69672 77.1054 6.8437C76.8985 6.98148 76.7137 7.14802 76.5568 7.33795L76.374 7.55679L75.9071 6.4249H74.2031V14.9707H76.5374V10.5789C76.5125 10.046 76.7007 9.52432 77.0626 9.12257C77.2354 8.94509 77.4451 8.80521 77.6778 8.7122C77.9106 8.61919 78.161 8.57517 78.4126 8.58304Z" fill="#1A1A1A"/>
<path d="M84.0139 6.40234H81.668V14.9481H84.0139V6.40234Z" fill="#1A1A1A"/>
<path d="M87.562 14.405C88.1572 14.903 89.0676 15.1596 90.2658 15.1596C90.7705 15.1662 91.2728 15.0909 91.752 14.937C92.1567 14.8071 92.5328 14.6049 92.8608 14.3409C93.1469 14.1097 93.3802 13.8232 93.5455 13.4995C93.7132 13.154 93.7927 12.7744 93.7771 12.3928C93.7615 12.0113 93.6514 11.6389 93.456 11.3074C93.2476 10.9891 92.9701 10.7187 92.6429 10.5151C92.3035 10.3076 91.9389 10.1416 91.5575 10.0208C91.1412 9.89254 90.7794 9.77935 90.437 9.68502C90.0947 9.5907 89.7912 9.4926 89.5578 9.40205C89.1687 9.25491 89.1026 9.02476 89.1026 8.86252C89.1004 8.7488 89.1236 8.63598 89.1706 8.53178C89.2176 8.42758 89.2873 8.33447 89.3749 8.25884C89.5964 8.09142 89.8726 8.00703 90.153 8.02115C90.4624 8.00852 90.7653 8.10958 91.0011 8.30412C91.1582 8.43552 91.2831 8.59921 91.3668 8.78329L93.6272 8.61728C93.4671 7.96926 93.096 7.38847 92.569 6.96094C91.9776 6.478 91.0984 6.22899 89.9546 6.22899C89.4759 6.2219 88.9996 6.29465 88.5463 6.44405C88.1679 6.56748 87.8159 6.7567 87.5075 7.00245C87.236 7.22054 87.0169 7.49353 86.8656 7.80232C86.7197 8.10333 86.644 8.43181 86.6438 8.76442C86.6249 9.19336 86.7358 9.61831 86.9629 9.98687C87.1713 10.3041 87.4488 10.5733 87.776 10.7754C88.1141 10.9852 88.479 11.1513 88.8614 11.2697C89.2504 11.398 89.6395 11.5111 89.9818 11.6055C90.2821 11.6876 90.577 11.7872 90.865 11.9035C91.254 12.0582 91.3163 12.2808 91.3163 12.4317C91.3123 12.5592 91.2792 12.6843 91.2193 12.7978C91.1595 12.9113 91.0743 13.0106 90.97 13.0882C90.7087 13.2856 90.3826 13.3848 90.0519 13.3674C89.7493 13.3898 89.4485 13.3056 89.2048 13.1303C88.9611 12.9549 88.7909 12.7002 88.7252 12.4129L86.4766 12.5827C86.6158 13.2915 86.9984 13.9338 87.562 14.405Z" fill="#1A1A1A"/>
<path d="M104.956 11.2356L104.995 10.9526C105.001 10.8609 105.001 10.7689 104.995 10.6772C105.004 10.0482 104.889 9.42337 104.657 8.83596C104.45 8.31132 104.138 7.8317 103.739 7.42488C103.353 7.03617 102.888 6.73025 102.373 6.52691C101.269 6.09534 100.034 6.10484 98.9379 6.55332C98.4017 6.77737 97.9155 7.10028 97.5062 7.50411C97.0949 7.91281 96.7663 8.39274 96.5375 8.91897C96.0656 10.0464 96.0656 11.3079 96.5375 12.4354C96.765 12.9605 97.0908 13.4402 97.4984 13.8502C97.898 14.2505 98.3736 14.5721 98.899 14.7973C99.4301 15.0274 100.006 15.1445 100.587 15.1406C101.115 15.1487 101.641 15.0735 102.144 14.918C102.573 14.7813 102.977 14.5774 103.338 14.3143C103.924 13.8927 104.375 13.3183 104.637 12.658L102.171 12.4882C102.085 12.588 101.982 12.6734 101.867 12.741C101.724 12.8389 101.565 12.9141 101.397 12.9636C101.17 13.0327 100.934 13.0659 100.696 13.0617C100.199 13.0781 99.7138 12.9109 99.3386 12.5938C99.0175 12.3278 98.7768 11.9822 98.6422 11.594L98.5761 11.3789H104.925C104.941 11.3337 104.949 11.2846 104.956 11.2356ZM98.5956 10.0697L98.6539 9.86221C98.7707 9.43927 99.0128 9.05884 99.3503 8.76805C99.7323 8.45863 100.214 8.28913 100.712 8.28913C101.21 8.28913 101.692 8.45863 102.074 8.76805C102.41 9.05983 102.652 9.43988 102.77 9.86221L102.828 10.0697H98.5956Z" fill="#1A1A1A"/>
<path d="M41.2622 23.9658H40.418V19.5703H41.2816L41.2622 23.9658Z" fill="#999999"/>
<path d="M44.6953 19.5703H48.2239V20.3702H46.8895V23.9658H46.0258V20.3702H44.6953V19.5703Z" fill="#999999"/>
<path d="M57.5942 21.7659C57.5912 21.9634 57.6282 22.1595 57.7031 22.3431C57.7695 22.51 57.8671 22.6634 57.991 22.7959C58.109 22.9216 58.2519 23.023 58.4112 23.094C58.5731 23.1623 58.7481 23.197 58.9247 23.1958C59.0676 23.1987 59.2098 23.177 59.3449 23.1317C59.4641 23.0891 59.5767 23.0307 59.6795 22.9581C59.7724 22.8889 59.8538 22.8062 59.9207 22.7129C59.9845 22.6252 60.0368 22.5302 60.0763 22.4299H60.975C60.9226 22.6418 60.8359 22.8442 60.7182 23.0298C60.6005 23.219 60.4505 23.3874 60.2747 23.5278C60.0943 23.6733 59.8906 23.7893 59.6717 23.8712C59.4332 23.9589 59.1798 24.0024 58.9247 23.9995C58.6342 24.0007 58.3466 23.9429 58.0805 23.8297C57.8178 23.7182 57.581 23.5565 57.3841 23.3543C57.1812 23.1482 57.0191 22.9078 56.9056 22.645C56.6721 22.0821 56.6721 21.4534 56.9056 20.8905C57.019 20.6266 57.1812 20.3849 57.3841 20.1774C57.5821 19.9775 57.8187 19.8173 58.0805 19.7058C58.3457 19.5896 58.6337 19.5304 58.9247 19.5323C59.1724 19.5306 59.4182 19.5754 59.6483 19.6643C59.8642 19.7459 60.0652 19.8605 60.2436 20.0039C60.5896 20.2892 60.8334 20.6736 60.94 21.1018H60.0413C60.0112 21.0024 59.9653 20.9082 59.9051 20.8226C59.7705 20.6275 59.5738 20.4804 59.3449 20.4038C59.0399 20.3018 58.7064 20.3153 58.4112 20.4416C58.2513 20.5098 58.1081 20.6101 57.991 20.7359C57.8662 20.869 57.7685 21.0239 57.7031 21.1924C57.6287 21.3749 57.5917 21.5697 57.5942 21.7659Z" fill="#999999"/>
<path d="M68.5679 21.7659C68.5718 22.0678 68.5108 22.3672 68.389 22.645C68.2768 22.9076 68.116 23.148 67.9143 23.3543C67.7175 23.5565 67.4807 23.7182 67.218 23.8297C66.9508 23.9417 66.6628 23.9995 66.3718 23.9995C66.0807 23.9995 65.7928 23.9417 65.5256 23.8297C65.2629 23.7182 65.0261 23.5565 64.8292 23.3543C64.6276 23.148 64.4668 22.9076 64.3546 22.645C64.1162 22.083 64.1162 21.4525 64.3546 20.8906C64.4667 20.6268 64.6276 20.3852 64.8292 20.1775C65.0273 19.9776 65.2639 19.8173 65.5256 19.7058C65.7921 19.5914 66.0803 19.5322 66.3718 19.5322C66.6633 19.5322 66.9515 19.5914 67.218 19.7058C67.4797 19.8173 67.7163 19.9776 67.9143 20.1775C68.116 20.3852 68.2769 20.6268 68.389 20.8906C68.5098 21.1674 68.5707 21.4653 68.5679 21.7659ZM65.0393 21.7659C65.038 21.9632 65.0749 22.1591 65.1483 22.3432C65.2158 22.5094 65.3133 22.6627 65.4361 22.7959C65.5534 22.9242 65.698 23.0264 65.8598 23.0954C66.0216 23.1645 66.197 23.1987 66.3737 23.1958C66.5497 23.1972 66.724 23.1622 66.885 23.0933C67.0459 23.0243 67.1899 22.923 67.3074 22.7959C67.4303 22.6627 67.5278 22.5094 67.5953 22.3432C67.7407 21.9725 67.7407 21.563 67.5953 21.1924C67.5282 21.0248 67.4307 20.8702 67.3074 20.7359C67.1884 20.6107 67.0441 20.5105 66.8835 20.4417C66.7229 20.3729 66.5493 20.3369 66.3737 20.3359C66.1973 20.3352 66.0227 20.3705 65.8612 20.4394C65.6997 20.5083 65.5549 20.6093 65.4361 20.7359C65.3129 20.8702 65.2154 21.0248 65.1483 21.1924C65.0752 21.3753 65.0383 21.5698 65.0393 21.7659Z" fill="#999999"/>
<path d="M76.7351 19.5703V23.9658H75.8714V21.5209L74.7043 23.9658H74.1285L72.9613 21.5209V23.9658H72.0977V19.5703H72.8524L74.4086 22.8151L75.9647 19.5703H76.7351Z" fill="#999999"/>
<path d="M82.2392 19.5704C82.446 19.5689 82.651 19.6073 82.8422 19.6835C83.0253 19.7577 83.1928 19.8639 83.3363 19.9967C83.4775 20.1298 83.5899 20.2888 83.667 20.4645C83.8184 20.8276 83.8184 21.2334 83.667 21.5964C83.5889 21.7716 83.4766 21.9305 83.3363 22.0643C83.1928 22.1971 83.0253 22.3032 82.8422 22.3774C82.651 22.4536 82.446 22.4921 82.2392 22.4906H81.4106V23.9583H80.5469V19.5704H82.2392ZM82.2392 21.6983C82.3281 21.6984 82.4159 21.679 82.496 21.6417C82.5768 21.6051 82.6505 21.5554 82.7138 21.4946C82.7762 21.4342 82.8275 21.364 82.8656 21.287C82.9016 21.2073 82.9202 21.1213 82.9202 21.0343C82.9202 20.9473 82.9016 20.8612 82.8656 20.7815C82.8275 20.7045 82.7762 20.6343 82.7138 20.574C82.6505 20.5132 82.5768 20.4634 82.496 20.4268C82.4159 20.3895 82.3281 20.3701 82.2392 20.3702H81.4106V21.6983H82.2392Z" fill="#999999"/>
<path d="M87.5276 23.9658H86.6289L88.3212 19.5703H89.0993L90.7917 23.9658H89.9047L89.5779 23.0565H87.8505L87.5276 23.9658ZM89.29 22.2906L88.7142 20.6833L88.1384 22.2906H89.29Z" fill="#999999"/>
<path d="M97.7508 19.5703V23.9658H96.9727L94.9575 21.1021V23.9658H94.1094V19.5703H94.8875L96.9027 22.4302V19.5703H97.7508Z" fill="#999999"/>
<path d="M104.074 19.5703H104.996L103.483 22.2906V23.9658H102.619V22.2906L101.109 19.5703H102.043L103.051 21.4568L104.074 19.5703Z" fill="#999999"/>
<path d="M7.58515 13.7222L11.0865 9.19464C11.1258 9.14531 11.1762 9.10537 11.2339 9.07789C11.2915 9.05041 11.3549 9.03612 11.4192 9.03612C11.4834 9.03612 11.5468 9.05041 11.6045 9.07789C11.6622 9.10537 11.7126 9.14531 11.7518 9.19464L14.1483 12.2998C14.179 12.3403 14.2192 12.3733 14.2655 12.396C14.3118 12.4188 14.3629 12.4306 14.4148 12.4306C14.4667 12.4306 14.5179 12.4188 14.5642 12.396C14.6105 12.3733 14.6506 12.3403 14.6813 12.2998L17.6614 8.44383C17.7139 8.37288 17.7362 8.28504 17.7236 8.19857C17.5592 7.22327 17.1567 6.30022 16.5497 5.50642C15.9426 4.71262 15.1487 4.07108 14.2341 3.63528C13.3195 3.19948 12.3107 2.98206 11.2919 3.00116C10.2731 3.02026 9.27369 3.27532 8.37714 3.74507C7.48058 4.21482 6.71283 4.88564 6.13791 5.7016C5.56298 6.51756 5.19754 7.45499 5.07207 8.43573C4.94661 9.41648 5.06474 10.4121 5.41663 11.3396C5.76852 12.267 6.34396 13.0995 7.09496 13.7675C7.12912 13.798 7.16952 13.8212 7.21355 13.8356C7.25757 13.85 7.30422 13.8552 7.35047 13.851C7.39672 13.8467 7.44153 13.833 7.48196 13.8108C7.5224 13.7886 7.55755 13.7584 7.58515 13.7222Z" fill="#E2233A"/>
<path d="M31.5197 23.4606L20.4903 9.16107C20.4591 9.12049 20.4187 9.08752 20.372 9.0648C20.3254 9.04209 20.274 9.03027 20.2218 9.03027C20.1697 9.03027 20.1182 9.04209 20.0716 9.0648C20.025 9.08752 19.9845 9.12049 19.9534 9.16107L15.989 14.2998C15.9479 14.3547 15.9258 14.4207 15.9258 14.4885C15.9258 14.5563 15.9479 14.6223 15.989 14.6771L23.0502 23.8379C23.0822 23.8774 23.1229 23.9094 23.1694 23.9316C23.2158 23.9538 23.2668 23.9656 23.3186 23.9662H31.2512C31.3111 23.9646 31.3695 23.9475 31.4202 23.9165C31.4709 23.8856 31.5122 23.842 31.5396 23.7904C31.567 23.7387 31.5796 23.6808 31.5761 23.6228C31.5726 23.5648 31.5531 23.5088 31.5197 23.4606Z" fill="#1A1A1A"/>
<path d="M3.06935 23.4599L11.1381 13.0087C11.1688 12.9682 11.209 12.9352 11.2553 12.9125C11.3016 12.8898 11.3527 12.8779 11.4046 12.8779C11.4565 12.8779 11.5077 12.8898 11.554 12.9125C11.6002 12.9352 11.6404 12.9682 11.6711 13.0087L19.7515 23.4599C19.7882 23.5081 19.8103 23.5653 19.8155 23.625C19.8207 23.6847 19.8088 23.7447 19.781 23.7982C19.7532 23.8518 19.7106 23.8968 19.658 23.9283C19.6055 23.9598 19.5449 23.9766 19.4831 23.9768H3.34557C3.28251 23.9795 3.21995 23.9647 3.16529 23.9341C3.11062 23.9035 3.06613 23.8583 3.03708 23.8039C3.00804 23.7496 2.99564 23.6883 3.00136 23.6273C3.00708 23.5663 3.03067 23.5082 3.06935 23.4599Z" fill="#1A1A1A"/>
</svg>
