<svg width="20" height="15" viewBox="0 0 20 15" fill="none" xmlns="http://www.w3.org/2000/svg">
<path d="M3.79124 7.61141L6.10556 4.522C6.13093 4.48791 6.1639 4.46022 6.20184 4.44115C6.23979 4.42208 6.28167 4.41215 6.32413 4.41215C6.36659 4.41215 6.40846 4.42208 6.44641 4.44115C6.48436 4.46022 6.51734 4.48791 6.54271 4.522L8.12672 6.64081C8.1473 6.66851 8.17406 6.69101 8.20487 6.7065C8.23568 6.722 8.26967 6.73007 8.30415 6.73007C8.33863 6.73007 8.37263 6.722 8.40344 6.7065C8.43424 6.69101 8.461 6.66851 8.48158 6.64081L10.4488 4.0071C10.4782 3.9585 10.4883 3.9006 10.477 3.8449C10.3679 3.17963 10.1015 2.55011 9.70002 2.00883C9.29856 1.46755 8.7737 1.03018 8.16917 0.733185C7.56463 0.436189 6.89796 0.288172 6.2247 0.301467C5.55144 0.314761 4.8911 0.488986 4.29873 0.809615C3.70637 1.13025 3.19913 1.58799 2.81931 2.1447C2.43949 2.70141 2.19808 3.34095 2.11521 4.01001C2.03234 4.67908 2.11042 5.35829 2.34292 5.99102C2.57542 6.62375 2.95561 7.19167 3.45181 7.64745C3.4751 7.67032 3.50315 7.68776 3.53397 7.6985C3.56478 7.70924 3.59757 7.71303 3.63002 7.70959C3.66246 7.70614 3.69374 7.69555 3.72161 7.67857C3.74949 7.6616 3.77327 7.63867 3.79124 7.61141V7.61141Z" fill="#E2233A"/>
<path d="M19.6057 14.2486L12.3131 4.49893C12.2928 4.47126 12.2662 4.44876 12.2356 4.43325C12.205 4.41775 12.1712 4.40967 12.1369 4.40967C12.1026 4.40967 12.0688 4.41775 12.0382 4.43325C12.0076 4.44876 11.9811 4.47126 11.9608 4.49893L9.34046 8.00542C9.31328 8.04282 9.29865 8.08789 9.29865 8.13414C9.29865 8.1804 9.31328 8.22546 9.34046 8.26287L14.0077 14.5061C14.0287 14.5331 14.0556 14.5551 14.0863 14.5703C14.1171 14.5854 14.1508 14.5934 14.1851 14.5936H19.4283C19.4679 14.5925 19.5065 14.5808 19.54 14.5597C19.5735 14.5386 19.6008 14.5089 19.6189 14.4736C19.637 14.4384 19.6454 14.3989 19.6431 14.3593C19.6407 14.3197 19.6278 14.2815 19.6057 14.2486V14.2486Z" fill="#1A1A1A"/>
<path d="M0.805783 14.2486L6.13898 7.11719C6.15956 7.0895 6.18632 7.06701 6.21713 7.05151C6.24793 7.03601 6.28193 7.02794 6.31641 7.02794C6.35089 7.02794 6.38488 7.03601 6.41569 7.05151C6.4465 7.06701 6.47326 7.0895 6.49384 7.11719L11.827 14.2486C11.8513 14.2815 11.8659 14.3205 11.8693 14.3613C11.8728 14.402 11.8649 14.443 11.8465 14.4795C11.8281 14.516 11.8 14.5467 11.7652 14.5682C11.7305 14.5897 11.6905 14.6012 11.6496 14.6013H0.983207C0.942354 14.6012 0.902334 14.5897 0.867582 14.5682C0.83283 14.5467 0.804706 14.516 0.786329 14.4795C0.767953 14.443 0.760045 14.402 0.763478 14.3613C0.76691 14.3205 0.781557 14.2815 0.805783 14.2486Z" fill="#1A1A1A"/>
</svg>
